STARTFONT 2.1
COMMENT The X10 name for this font was "/mit/games/lib/xconq5/standard.onx"
FONT standard
SIZE 11 75 75
FONTBOUNDINGBOX 16 16 0 0
STARTPROPERTIES 2
FONT_DESCENT 5
FONT_ASCENT 11
ENDPROPERTIES
CHARS 126
STARTCHAR C000
ENCODING 0
SWIDTH 1 0
DWIDTH 16 0
BBX 16 16 0 -5
BITMAP
ffff
ffff
c003
c003
c003
c003
c003
c003
c003
c003
c003
c003
c003
c003
ffff
ffff
ENDCHAR
STARTCHAR C001
ENCODING 1
SWIDTH 1 0
DWIDTH 16 0
BBX 16 16 0 -5
BITMAP
0000
0000
0000
0000
0000
0000
0000
0000
0000
0000
0000
0000
0000
0000
0000
0000
ENDCHAR
STARTCHAR C002
ENCODING 2
SWIDTH 1 0
DWIDTH 16 0
BBX 16 16 0 -5
BITMAP
0000
0000
0000
0000
0000
0000
0000
0000
0000
0000
0000
0000
0000
0000
0000
0000
ENDCHAR
STARTCHAR C003
ENCODING 3
SWIDTH 1 0
DWIDTH 16 0
BBX 16 16 0 -5
BITMAP
0000
0000
0000
0000
0000
0000
0000
0000
0000
0000
0000
0000
0000
0000
0000
0000
ENDCHAR
STARTCHAR C004
ENCODING 4
SWIDTH 1 0
DWIDTH 16 0
BBX 16 16 0 -5
BITMAP
0000
0000
0000
0000
0000
0000
0000
0000
0000
0000
0000
0000
0000
0000
0000
0000
ENDCHAR
STARTCHAR C005
ENCODING 5
SWIDTH 1 0
DWIDTH 16 0
BBX 16 16 0 -5
BITMAP
0000
0000
0000
0000
0000
0000
0000
0000
0000
0000
0000
0000
0000
0000
0000
0000
ENDCHAR
STARTCHAR C006
ENCODING 6
SWIDTH 1 0
DWIDTH 16 0
BBX 16 16 0 -5
BITMAP
0000
0000
0000
0000
0000
0000
0000
0000
0000
0000
0000
0000
0000
0000
0000
0000
ENDCHAR
STARTCHAR C007
ENCODING 7
SWIDTH 1 0
DWIDTH 16 0
BBX 16 16 0 -5
BITMAP
0000
0000
0000
0000
0000
0000
0000
0000
0000
0000
0000
0000
0000
0000
0000
0000
ENDCHAR
STARTCHAR C010
ENCODING 8
SWIDTH 1 0
DWIDTH 16 0
BBX 16 16 0 -5
BITMAP
0000
0000
0000
0000
0000
0000
0000
0000
0000
0000
0000
0000
0000
0000
0000
0000
ENDCHAR
STARTCHAR C011
ENCODING 9
SWIDTH 1 0
DWIDTH 16 0
BBX 16 16 0 -5
BITMAP
0000
0000
0000
0000
0000
0000
0000
0000
0000
0000
0000
0000
0000
0000
0000
0000
ENDCHAR
STARTCHAR C012
ENCODING 10
SWIDTH 1 0
DWIDTH 16 0
BBX 16 16 0 -5
BITMAP
0000
0000
0000
0000
0000
0000
0000
0000
0000
0000
0000
0000
0000
0000
0000
0000
ENDCHAR
STARTCHAR C013
ENCODING 11
SWIDTH 1 0
DWIDTH 16 0
BBX 16 16 0 -5
BITMAP
0000
0000
0000
0000
0000
0000
0000
0000
0000
0000
0000
0000
0000
0000
0000
0000
ENDCHAR
STARTCHAR C014
ENCODING 12
SWIDTH 1 0
DWIDTH 16 0
BBX 16 16 0 -5
BITMAP
0000
0000
0000
0000
0000
0000
0000
0000
0000
0000
0000
0000
0000
0000
0000
0000
ENDCHAR
STARTCHAR C015
ENCODING 13
SWIDTH 1 0
DWIDTH 16 0
BBX 16 16 0 -5
BITMAP
0000
0000
0000
0000
0000
0000
0000
0000
0000
0000
0000
0000
0000
0000
0000
0000
ENDCHAR
STARTCHAR C016
ENCODING 14
SWIDTH 1 0
DWIDTH 16 0
BBX 16 16 0 -5
BITMAP
0000
0000
0000
0000
0000
0000
0000
0000
0000
0000
0000
0000
0000
0000
0000
0000
ENDCHAR
STARTCHAR C017
ENCODING 15
SWIDTH 1 0
DWIDTH 16 0
BBX 16 16 0 -5
BITMAP
0000
0000
0000
0000
0000
0000
0000
0000
0000
0000
0000
0000
0000
0000
0000
0000
ENDCHAR
STARTCHAR C020
ENCODING 16
SWIDTH 1 0
DWIDTH 16 0
BBX 16 16 0 -5
BITMAP
0000
0000
0000
0000
0000
0000
0000
0000
0000
0000
0000
0000
0000
0000
0000
0000
ENDCHAR
STARTCHAR C021
ENCODING 17
SWIDTH 1 0
DWIDTH 16 0
BBX 16 16 0 -5
BITMAP
0000
0000
0000
0000
0000
0000
0000
0000
0000
0000
0000
0000
0000
0000
0000
0000
ENDCHAR
STARTCHAR C022
ENCODING 18
SWIDTH 1 0
DWIDTH 16 0
BBX 16 16 0 -5
BITMAP
0000
0000
0000
0000
0000
0000
0000
0000
0000
0000
0000
0000
0000
0000
0000
0000
ENDCHAR
STARTCHAR C023
ENCODING 19
SWIDTH 1 0
DWIDTH 16 0
BBX 16 16 0 -5
BITMAP
0000
0000
0000
0000
0000
0000
0000
0000
0000
0000
0000
0000
0000
0000
0000
0000
ENDCHAR
STARTCHAR C024
ENCODING 20
SWIDTH 1 0
DWIDTH 16 0
BBX 16 16 0 -5
BITMAP
0000
0000
0000
0000
0000
0000
0000
0000
0000
0000
0000
0000
0000
0000
0000
0000
ENDCHAR
STARTCHAR C025
ENCODING 21
SWIDTH 1 0
DWIDTH 16 0
BBX 16 16 0 -5
BITMAP
0000
0000
0000
0000
0000
0000
0000
0000
0000
0000
0000
0000
0000
0000
0000
0000
ENDCHAR
STARTCHAR C026
ENCODING 22
SWIDTH 1 0
DWIDTH 16 0
BBX 16 16 0 -5
BITMAP
0000
0000
0000
0000
0000
0000
0000
0000
0000
0000
0000
0000
0000
0000
0000
0000
ENDCHAR
STARTCHAR C027
ENCODING 23
SWIDTH 1 0
DWIDTH 16 0
BBX 16 16 0 -5
BITMAP
0000
0000
0000
0000
0000
0000
0000
0000
0000
0000
0000
0000
0000
0000
0000
0000
ENDCHAR
STARTCHAR C030
ENCODING 24
SWIDTH 1 0
DWIDTH 16 0
BBX 16 16 0 -5
BITMAP
0000
0000
0000
0000
0000
0000
0000
0000
0000
0000
0000
0000
0000
0000
0000
0000
ENDCHAR
STARTCHAR C031
ENCODING 25
SWIDTH 1 0
DWIDTH 16 0
BBX 16 16 0 -5
BITMAP
0000
0000
0000
0000
0000
0000
0000
0000
0000
0000
0000
0000
0000
0000
0000
0000
ENDCHAR
STARTCHAR C032
ENCODING 26
SWIDTH 1 0
DWIDTH 16 0
BBX 16 16 0 -5
BITMAP
0000
0000
0000
0000
0000
0000
0000
0000
0000
0000
0000
0000
0000
0000
0000
0000
ENDCHAR
STARTCHAR C033
ENCODING 27
SWIDTH 1 0
DWIDTH 16 0
BBX 16 16 0 -5
BITMAP
0000
0000
0000
0000
0000
0000
0000
0000
0000
0000
0000
0000
0000
0000
0000
0000
ENDCHAR
STARTCHAR C034
ENCODING 28
SWIDTH 1 0
DWIDTH 16 0
BBX 16 16 0 -5
BITMAP
0000
0000
0000
0000
0000
0000
0000
0000
0000
0000
0000
0000
0000
0000
0000
0000
ENDCHAR
STARTCHAR C035
ENCODING 29
SWIDTH 1 0
DWIDTH 16 0
BBX 16 16 0 -5
BITMAP
0000
0000
0000
0000
0000
0000
0000
0000
0000
0000
0000
0000
0000
0000
0000
0000
ENDCHAR
STARTCHAR C036
ENCODING 30
SWIDTH 1 0
DWIDTH 16 0
BBX 16 16 0 -5
BITMAP
0000
0000
0000
0000
0000
0000
0000
0000
0000
0000
0000
0000
0000
0000
0000
0000
ENDCHAR
STARTCHAR C037
ENCODING 31
SWIDTH 1 0
DWIDTH 16 0
BBX 16 16 0 -5
BITMAP
0000
0000
0000
0000
0000
0000
0000
0000
0000
0000
0000
0000
0000
0000
0000
0000
ENDCHAR
STARTCHAR C040
ENCODING 32
SWIDTH 1 0
DWIDTH 16 0
BBX 16 16 0 -5
BITMAP
0000
0000
0000
0000
0000
0000
0000
0000
0000
0000
0000
0000
0000
0000
0000
0000
ENDCHAR
STARTCHAR !
ENCODING 33
SWIDTH 1 0
DWIDTH 16 0
BBX 16 16 0 -5
BITMAP
0000
0000
0000
0000
0000
0000
0000
0000
0000
0000
0000
0000
0000
0000
0000
0000
ENDCHAR
STARTCHAR "
ENCODING 34
SWIDTH 1 0
DWIDTH 16 0
BBX 16 16 0 -5
BITMAP
0000
0000
0000
0000
0000
0000
0000
0000
0000
0000
0000
0000
0000
0000
0000
0000
ENDCHAR
STARTCHAR #
ENCODING 35
SWIDTH 1 0
DWIDTH 16 0
BBX 16 16 0 -5
BITMAP
0000
0000
0000
0000
0000
0000
0000
0000
0000
0000
0000
0000
0000
0000
0000
0000
ENDCHAR
STARTCHAR $
ENCODING 36
SWIDTH 1 0
DWIDTH 16 0
BBX 16 16 0 -5
BITMAP
0000
0000
0000
0000
0000
0000
0000
0000
0000
0000
0000
0000
0000
0000
0000
0000
ENDCHAR
STARTCHAR %
ENCODING 37
SWIDTH 1 0
DWIDTH 16 0
BBX 16 16 0 -5
BITMAP
0000
0000
0000
0000
0000
0000
0000
0000
0000
0000
0000
0000
0000
0000
0000
0000
ENDCHAR
STARTCHAR &
ENCODING 38
SWIDTH 1 0
DWIDTH 16 0
BBX 16 16 0 -5
BITMAP
0000
0000
0000
0000
0000
0000
0000
0000
0000
0000
0000
0000
0000
0000
0000
0000
ENDCHAR
STARTCHAR '
ENCODING 39
SWIDTH 1 0
DWIDTH 16 0
BBX 16 16 0 -5
BITMAP
0000
0000
0000
0000
0000
0000
0000
0000
0000
0000
0000
0000
0000
0000
0000
0000
ENDCHAR
STARTCHAR (
ENCODING 40
SWIDTH 1 0
DWIDTH 16 0
BBX 16 16 0 -5
BITMAP
0000
0000
0000
0000
0000
0000
0000
0000
0000
0000
0000
0000
0000
0000
0000
0000
ENDCHAR
STARTCHAR )
ENCODING 41
SWIDTH 1 0
DWIDTH 16 0
BBX 16 16 0 -5
BITMAP
0000
0000
0000
0000
0000
0000
0000
0000
0000
0000
0000
0000
0000
0000
0000
0000
ENDCHAR
STARTCHAR *
ENCODING 42
SWIDTH 1 0
DWIDTH 16 0
BBX 16 16 0 -5
BITMAP
0000
0000
0000
0000
0000
1000
1000
1000
383e
2bea
3abe
3bea
7fff
0000
0000
0000
ENDCHAR
STARTCHAR +
ENCODING 43
SWIDTH 1 0
DWIDTH 16 0
BBX 16 16 0 -5
BITMAP
0000
0000
0000
0000
0000
0000
0000
0000
0000
0000
0000
0000
0000
0000
0000
0000
ENDCHAR
STARTCHAR ,
ENCODING 44
SWIDTH 1 0
DWIDTH 16 0
BBX 16 16 0 -5
BITMAP
0000
0000
0000
0000
0000
0000
0000
0000
0000
0000
0000
0000
0000
0000
0000
0000
ENDCHAR
STARTCHAR -
ENCODING 45
SWIDTH 1 0
DWIDTH 16 0
BBX 16 16 0 -5
BITMAP
0000
0000
0000
0000
0000
0000
0000
0000
0000
0000
0000
0000
0000
0000
0000
0000
ENDCHAR
STARTCHAR .
ENCODING 46
SWIDTH 1 0
DWIDTH 16 0
BBX 16 16 0 -5
BITMAP
0000
0000
0000
0000
0000
0000
0000
0000
0000
0000
0000
0000
0000
0000
0000
0000
ENDCHAR
STARTCHAR /
ENCODING 47
SWIDTH 1 0
DWIDTH 16 0
BBX 16 16 0 -5
BITMAP
0000
00c8
00d0
00e0
00c0
00e0
0160
0260
0460
7c60
17f0
203c
0030
0030
0030
0000
ENDCHAR
STARTCHAR 0
ENCODING 48
SWIDTH 1 0
DWIDTH 16 0
BBX 16 16 0 -5
BITMAP
0000
0000
0000
0000
0000
0000
0000
0000
0000
0000
0000
0000
0000
0000
0000
0000
ENDCHAR
STARTCHAR 1
ENCODING 49
SWIDTH 1 0
DWIDTH 16 0
BBX 16 16 0 -5
BITMAP
0000
0000
0000
0000
0000
0000
0000
0000
0000
0000
0000
0000
0000
0000
0000
0000
ENDCHAR
STARTCHAR 2
ENCODING 50
SWIDTH 1 0
DWIDTH 16 0
BBX 16 16 0 -5
BITMAP
0000
0000
0000
0000
0000
0000
0000
0000
0000
0000
0000
0000
0000
0000
0000
0000
ENDCHAR
STARTCHAR 3
ENCODING 51
SWIDTH 1 0
DWIDTH 16 0
BBX 16 16 0 -5
BITMAP
0000
0000
0000
0000
0000
0000
0000
0000
0000
0000
0000
0000
0000
0000
0000
0000
ENDCHAR
STARTCHAR 4
ENCODING 52
SWIDTH 1 0
DWIDTH 16 0
BBX 16 16 0 -5
BITMAP
0000
0000
0000
0000
0000
0000
0000
0000
0000
0000
0000
0000
0000
0000
0000
0000
ENDCHAR
STARTCHAR 5
ENCODING 53
SWIDTH 1 0
DWIDTH 16 0
BBX 16 16 0 -5
BITMAP
0000
0000
0000
0000
0000
0000
0000
0000
0000
0000
0000
0000
0000
0000
0000
0000
ENDCHAR
STARTCHAR 6
ENCODING 54
SWIDTH 1 0
DWIDTH 16 0
BBX 16 16 0 -5
BITMAP
0000
0000
0000
0000
0000
0000
0000
0000
0000
0000
0000
0000
0000
0000
0000
0000
ENDCHAR
STARTCHAR 7
ENCODING 55
SWIDTH 1 0
DWIDTH 16 0
BBX 16 16 0 -5
BITMAP
0000
0000
0000
0000
0000
0000
0000
0000
0000
0000
0000
0000
0000
0000
0000
0000
ENDCHAR
STARTCHAR 8
ENCODING 56
SWIDTH 1 0
DWIDTH 16 0
BBX 16 16 0 -5
BITMAP
0000
0000
0000
0000
0000
0000
0000
0000
0000
0000
0000
0000
0000
0000
0000
0000
ENDCHAR
STARTCHAR 9
ENCODING 57
SWIDTH 1 0
DWIDTH 16 0
BBX 16 16 0 -5
BITMAP
0000
0000
0000
0000
0000
0000
0000
0000
0000
0000
0000
0000
0000
0000
0000
0000
ENDCHAR
STARTCHAR :
ENCODING 58
SWIDTH 1 0
DWIDTH 16 0
BBX 16 16 0 -5
BITMAP
0000
0000
0000
0000
0000
0000
0000
0000
0000
0000
0000
0000
0000
0000
0000
0000
ENDCHAR
STARTCHAR ;
ENCODING 59
SWIDTH 1 0
DWIDTH 16 0
BBX 16 16 0 -5
BITMAP
0000
0000
0000
0000
0000
0000
0000
0000
0000
0000
0000
0000
0000
0000
0000
0000
ENDCHAR
STARTCHAR <
ENCODING 60
SWIDTH 1 0
DWIDTH 16 0
BBX 16 16 0 -5
BITMAP
0000
0000
0000
0000
0000
0000
0000
0000
0000
0000
0000
0000
0000
0000
0000
0000
ENDCHAR
STARTCHAR =
ENCODING 61
SWIDTH 1 0
DWIDTH 16 0
BBX 16 16 0 -5
BITMAP
0000
0000
0000
0000
0000
0000
0000
0000
0000
0000
0000
0000
0000
0000
0000
0000
ENDCHAR
STARTCHAR >
ENCODING 62
SWIDTH 1 0
DWIDTH 16 0
BBX 16 16 0 -5
BITMAP
0000
0000
0000
0000
0000
0000
0000
0000
0000
0000
0000
0000
0000
0000
0000
0000
ENDCHAR
STARTCHAR ?
ENCODING 63
SWIDTH 1 0
DWIDTH 16 0
BBX 16 16 0 -5
BITMAP
0000
0000
0000
0000
0000
0000
0000
0000
0000
0000
0000
0000
0000
0000
0000
0000
ENDCHAR
STARTCHAR @
ENCODING 64
SWIDTH 1 0
DWIDTH 16 0
BBX 16 16 0 -5
BITMAP
0000
0380
7280
5380
72e0
53a0
72f0
53d6
7ef6
57be
7efa
55ae
ffff
0000
0000
0000
ENDCHAR
STARTCHAR A
ENCODING 65
SWIDTH 1 0
DWIDTH 16 0
BBX 16 16 0 -5
BITMAP
0000
0000
0000
0000
0000
0000
0000
0000
0000
0000
0000
0000
0000
0000
0000
0000
ENDCHAR
STARTCHAR B
ENCODING 66
SWIDTH 1 0
DWIDTH 16 0
BBX 16 16 0 -5
BITMAP
0000
0000
0000
0000
0200
4240
36c4
1ff8
ffff
7ffe
0000
0000
0000
0000
0000
0000
ENDCHAR
STARTCHAR C
ENCODING 67
SWIDTH 1 0
DWIDTH 16 0
BBX 16 16 0 -5
BITMAP
0000
0040
0400
2000
0400
0000
0380
ffff
7ffe
0000
0000
0000
0000
0000
0000
0000
ENDCHAR
STARTCHAR D
ENCODING 68
SWIDTH 1 0
DWIDTH 16 0
BBX 16 16 0 -5
BITMAP
0000
0000
0000
0000
0000
0000
0000
0000
0000
0000
0000
0000
0000
0000
0000
0000
ENDCHAR
STARTCHAR E
ENCODING 69
SWIDTH 1 0
DWIDTH 16 0
BBX 16 16 0 -5
BITMAP
0000
0000
0000
0000
0000
0000
0000
0000
0000
0000
0000
0000
0000
0000
0000
0000
ENDCHAR
STARTCHAR F
ENCODING 70
SWIDTH 1 0
DWIDTH 16 0
BBX 16 16 0 -5
BITMAP
0000
0000
0000
0000
0000
0000
0000
0000
0000
0000
0000
0000
0000
0000
0000
0000
ENDCHAR
STARTCHAR G
ENCODING 71
SWIDTH 1 0
DWIDTH 16 0
BBX 16 16 0 -5
BITMAP
0000
0000
0000
0000
0000
0000
0000
0000
0000
0000
0000
0000
0000
0000
0000
0000
ENDCHAR
STARTCHAR H
ENCODING 72
SWIDTH 1 0
DWIDTH 16 0
BBX 16 16 0 -5
BITMAP
0000
0000
0000
0000
0000
0000
0000
0000
0000
0000
0000
0000
0000
0000
0000
0000
ENDCHAR
STARTCHAR I
ENCODING 73
SWIDTH 1 0
DWIDTH 16 0
BBX 16 16 0 -5
BITMAP
0000
0000
0000
0000
0000
0000
0000
0000
0000
0000
0000
0000
0000
0000
0000
0000
ENDCHAR
STARTCHAR J
ENCODING 74
SWIDTH 1 0
DWIDTH 16 0
BBX 16 16 0 -5
BITMAP
0000
0000
0000
0000
0000
0000
0000
0000
0000
0000
0000
0000
0000
0000
0000
0000
ENDCHAR
STARTCHAR K
ENCODING 75
SWIDTH 1 0
DWIDTH 16 0
BBX 16 16 0 -5
BITMAP
0000
0000
0000
0000
0000
0000
0000
0000
0000
0000
0000
0000
0000
0000
0000
0000
ENDCHAR
STARTCHAR L
ENCODING 76
SWIDTH 1 0
DWIDTH 16 0
BBX 16 16 0 -5
BITMAP
0000
0000
0000
0000
0000
0000
0000
0000
0000
0000
0000
0000
0000
0000
0000
0000
ENDCHAR
STARTCHAR M
ENCODING 77
SWIDTH 1 0
DWIDTH 16 0
BBX 16 16 0 -5
BITMAP
0000
0000
0000
0000
0000
0000
0000
0000
0000
0000
0000
0000
0000
0000
0000
0000
ENDCHAR
STARTCHAR N
ENCODING 78
SWIDTH 1 0
DWIDTH 16 0
BBX 16 16 0 -5
BITMAP
0000
0000
0000
0000
0000
000c
1fd4
3ffc
3ffc
1fd4
000c
0000
0000
0000
0000
0000
ENDCHAR
STARTCHAR O
ENCODING 79
SWIDTH 1 0
DWIDTH 16 0
BBX 16 16 0 -5
BITMAP
0000
0000
0000
0000
0000
0000
0000
0000
0000
0000
0000
0000
0000
0000
0000
0000
ENDCHAR
STARTCHAR P
ENCODING 80
SWIDTH 1 0
DWIDTH 16 0
BBX 16 16 0 -5
BITMAP
0000
0000
0000
0000
0000
0000
0000
0000
0000
0000
0000
0000
0000
0000
0000
0000
ENDCHAR
STARTCHAR Q
ENCODING 81
SWIDTH 1 0
DWIDTH 16 0
BBX 16 16 0 -5
BITMAP
0000
0000
0000
0000
0000
0000
0000
0000
0000
0000
0000
0000
0000
0000
0000
0000
ENDCHAR
STARTCHAR R
ENCODING 82
SWIDTH 1 0
DWIDTH 16 0
BBX 16 16 0 -5
BITMAP
0000
0000
0000
0000
0000
0000
0000
0000
0000
0000
0000
0000
0000
0000
0000
0000
ENDCHAR
STARTCHAR S
ENCODING 83
SWIDTH 1 0
DWIDTH 16 0
BBX 16 16 0 -5
BITMAP
0000
0000
0000
0000
0000
0000
0000
0000
0000
0000
0000
0000
0000
0000
0000
0000
ENDCHAR
STARTCHAR T
ENCODING 84
SWIDTH 1 0
DWIDTH 16 0
BBX 16 16 0 -5
BITMAP
0000
0000
0000
0000
0000
0000
0000
0000
0000
0000
0000
0000
0000
0000
0000
0000
ENDCHAR
STARTCHAR U
ENCODING 85
SWIDTH 1 0
DWIDTH 16 0
BBX 16 16 0 -5
BITMAP
0000
0000
0000
0000
0000
0000
0000
0000
0000
0000
0000
0000
0000
0000
0000
0000
ENDCHAR
STARTCHAR V
ENCODING 86
SWIDTH 1 0
DWIDTH 16 0
BBX 16 16 0 -5
BITMAP
0000
0000
0000
0000
0000
0000
0000
0000
0000
0000
0000
0000
0000
0000
0000
0000
ENDCHAR
STARTCHAR W
ENCODING 87
SWIDTH 1 0
DWIDTH 16 0
BBX 16 16 0 -5
BITMAP
0000
0000
0000
0000
0000
0000
0000
0000
0000
0000
0000
0000
0000
0000
0000
0000
ENDCHAR
STARTCHAR X
ENCODING 88
SWIDTH 1 0
DWIDTH 16 0
BBX 16 16 0 -5
BITMAP
0000
0000
0000
0000
0000
0000
0000
0000
0000
0000
0000
0000
0000
0000
0000
0000
ENDCHAR
STARTCHAR Y
ENCODING 89
SWIDTH 1 0
DWIDTH 16 0
BBX 16 16 0 -5
BITMAP
0000
0000
0000
0000
0000
0000
0000
0000
0000
0000
0000
0000
0000
0000
0000
0000
ENDCHAR
STARTCHAR Z
ENCODING 90
SWIDTH 1 0
DWIDTH 16 0
BBX 16 16 0 -5
BITMAP
0000
0000
0000
0000
0000
0000
0000
0000
0000
0000
0000
0000
0000
0000
0000
0000
ENDCHAR
STARTCHAR [
ENCODING 91
SWIDTH 1 0
DWIDTH 16 0
BBX 16 16 0 -5
BITMAP
0000
0000
0000
0000
0000
0000
0000
0000
0000
0000
0000
0000
0000
0000
0000
0000
ENDCHAR
STARTCHAR \
ENCODING 92
SWIDTH 1 0
DWIDTH 16 0
BBX 16 16 0 -5
BITMAP
0000
0000
0000
0000
0000
0000
0000
0000
0000
0000
0000
0000
0000
0000
0000
0000
ENDCHAR
STARTCHAR ]
ENCODING 93
SWIDTH 1 0
DWIDTH 16 0
BBX 16 16 0 -5
BITMAP
0000
0000
0000
0000
0000
0000
0000
0000
0000
0000
0000
0000
0000
0000
0000
0000
ENDCHAR
STARTCHAR ^
ENCODING 94
SWIDTH 1 0
DWIDTH 16 0
BBX 16 16 0 -5
BITMAP
0000
0000
0000
0000
0000
0000
0000
0000
0000
0000
0000
0000
0000
0000
0000
0000
ENDCHAR
STARTCHAR _
ENCODING 95
SWIDTH 1 0
DWIDTH 16 0
BBX 16 16 0 -5
BITMAP
0000
0000
0000
0000
0000
0000
0000
0000
0000
0000
0000
0000
0000
0000
0000
0000
ENDCHAR
STARTCHAR `
ENCODING 96
SWIDTH 1 0
DWIDTH 16 0
BBX 16 16 0 -5
BITMAP
0000
0000
0000
0000
0000
0000
0000
0000
0000
0000
0000
0000
0000
0000
0000
0000
ENDCHAR
STARTCHAR a
ENCODING 97
SWIDTH 1 0
DWIDTH 16 0
BBX 16 16 0 -5
BITMAP
0000
0000
0000
0000
0000
0000
03c0
fff0
07fe
7ffc
3ff8
0000
0000
0000
0000
0000
ENDCHAR
STARTCHAR b
ENCODING 98
SWIDTH 1 0
DWIDTH 16 0
BBX 16 16 0 -5
BITMAP
0000
0200
0600
0e00
0600
0e02
0606
7ffe
7ffe
0606
0e02
0600
0e00
0600
0200
0000
ENDCHAR
STARTCHAR c
ENCODING 99
SWIDTH 1 0
DWIDTH 16 0
BBX 16 16 0 -5
BITMAP
0000
0000
0000
0000
0000
0000
0000
0000
0000
0000
0000
0000
0000
0000
0000
0000
ENDCHAR
STARTCHAR d
ENCODING 100
SWIDTH 1 0
DWIDTH 16 0
BBX 16 16 0 -5
BITMAP
0000
0000
0000
0000
0000
0000
0000
0500
0fc0
1ff8
0000
0000
0000
0000
0000
0000
ENDCHAR
STARTCHAR e
ENCODING 101
SWIDTH 1 0
DWIDTH 16 0
BBX 16 16 0 -5
BITMAP
0000
0000
0000
0000
0000
0000
0000
0000
0000
0000
0000
0000
0000
0000
0000
0000
ENDCHAR
STARTCHAR f
ENCODING 102
SWIDTH 1 0
DWIDTH 16 0
BBX 16 16 0 -5
BITMAP
0000
0000
0000
0060
1fc0
7fe0
0700
0000
0006
001c
0ffc
3ffe
01e0
0070
0000
0000
ENDCHAR
STARTCHAR g
ENCODING 103
SWIDTH 1 0
DWIDTH 16 0
BBX 16 16 0 -5
BITMAP
0000
0000
0000
0000
0000
0000
0000
0000
0000
0000
0000
0000
0000
0000
0000
0000
ENDCHAR
STARTCHAR h
ENCODING 104
SWIDTH 1 0
DWIDTH 16 0
BBX 16 16 0 -5
BITMAP
0000
0000
0000
0000
0000
0000
0000
0000
0000
0000
0000
0000
0000
0000
0000
0000
ENDCHAR
STARTCHAR i
ENCODING 105
SWIDTH 1 0
DWIDTH 16 0
BBX 16 16 0 -5
BITMAP
0000
0000
0400
2800
7080
7500
7e10
2ea0
2fc2
05d4
05f8
00b8
00b8
0010
0010
0000
ENDCHAR
STARTCHAR j
ENCODING 106
SWIDTH 1 0
DWIDTH 16 0
BBX 16 16 0 -5
BITMAP
0000
0000
0000
0000
0000
0000
0000
0000
0000
0000
0000
0000
0000
0000
0000
0000
ENDCHAR
STARTCHAR k
ENCODING 107
SWIDTH 1 0
DWIDTH 16 0
BBX 16 16 0 -5
BITMAP
0000
0000
0000
0000
0000
0000
0000
0000
0000
0000
0000
0000
0000
0000
0000
0000
ENDCHAR
STARTCHAR l
ENCODING 108
SWIDTH 1 0
DWIDTH 16 0
BBX 16 16 0 -5
BITMAP
0000
0000
0000
0000
0000
0000
0000
0000
0000
0000
0000
0000
0000
0000
0000
0000
ENDCHAR
STARTCHAR m
ENCODING 109
SWIDTH 1 0
DWIDTH 16 0
BBX 16 16 0 -5
BITMAP
0000
0000
0000
0000
0000
0000
0000
0000
0000
0000
0000
0000
0000
0000
0000
0000
ENDCHAR
STARTCHAR n
ENCODING 110
SWIDTH 1 0
DWIDTH 16 0
BBX 16 16 0 -5
BITMAP
0000
0000
0000
0000
0000
0000
0000
0000
0000
0000
0000
0000
0000
0000
0000
0000
ENDCHAR
STARTCHAR o
ENCODING 111
SWIDTH 1 0
DWIDTH 16 0
BBX 16 16 0 -5
BITMAP
0000
0000
0000
0000
0000
0000
0000
0000
0000
0000
0000
0000
0000
0000
0000
0000
ENDCHAR
STARTCHAR p
ENCODING 112
SWIDTH 1 0
DWIDTH 16 0
BBX 16 16 0 -5
BITMAP
0000
0000
0000
0000
0000
0000
0000
0000
0000
0000
0000
0000
0000
0000
0000
0000
ENDCHAR
STARTCHAR q
ENCODING 113
SWIDTH 1 0
DWIDTH 16 0
BBX 16 16 0 -5
BITMAP
0000
0000
0000
0000
0000
0000
0000
0000
0000
0000
0000
0000
0000
0000
0000
0000
ENDCHAR
STARTCHAR r
ENCODING 114
SWIDTH 1 0
DWIDTH 16 0
BBX 16 16 0 -5
BITMAP
0000
0000
0000
0000
0000
0000
0000
0000
0000
0000
0000
0000
0000
0000
0000
0000
ENDCHAR
STARTCHAR s
ENCODING 115
SWIDTH 1 0
DWIDTH 16 0
BBX 16 16 0 -5
BITMAP
0000
0000
0000
0000
0000
0000
0000
0600
0600
3ffc
0000
0000
0000
0000
0000
0000
ENDCHAR
STARTCHAR t
ENCODING 116
SWIDTH 1 0
DWIDTH 16 0
BBX 16 16 0 -5
BITMAP
0000
0000
0000
0000
0000
0000
0660
0ff0
3ffc
1ff8
0000
0000
0000
0000
0000
0000
ENDCHAR
STARTCHAR u
ENCODING 117
SWIDTH 1 0
DWIDTH 16 0
BBX 16 16 0 -5
BITMAP
0000
0000
0000
0000
0000
0000
0000
0000
0000
0000
0000
0000
0000
0000
0000
0000
ENDCHAR
STARTCHAR v
ENCODING 118
SWIDTH 1 0
DWIDTH 16 0
BBX 16 16 0 -5
BITMAP
0000
0000
0000
0000
0000
0000
0000
0000
0000
0000
0000
0000
0000
0000
0000
0000
ENDCHAR
STARTCHAR w
ENCODING 119
SWIDTH 1 0
DWIDTH 16 0
BBX 16 16 0 -5
BITMAP
0000
0000
0000
0000
0000
0000
0000
0000
0000
0000
0000
0000
0000
0000
0000
0000
ENDCHAR
STARTCHAR x
ENCODING 120
SWIDTH 1 0
DWIDTH 16 0
BBX 16 16 0 -5
BITMAP
0000
0000
0000
0000
0000
0000
0000
0000
0000
0000
0000
0000
0000
0000
0000
0000
ENDCHAR
STARTCHAR y
ENCODING 121
SWIDTH 1 0
DWIDTH 16 0
BBX 16 16 0 -5
BITMAP
0000
0000
0000
0000
0000
0000
0000
0000
0000
0000
0000
0000
0000
0000
0000
0000
ENDCHAR
STARTCHAR z
ENCODING 122
SWIDTH 1 0
DWIDTH 16 0
BBX 16 16 0 -5
BITMAP
0000
0000
0000
0000
0000
0000
0000
0000
0000
0000
0000
0000
0000
0000
0000
0000
ENDCHAR
STARTCHAR {
ENCODING 123
SWIDTH 1 0
DWIDTH 16 0
BBX 16 16 0 -5
BITMAP
0000
0000
0000
0000
0000
0000
0000
0000
0000
0000
0000
0000
0000
0000
0000
0000
ENDCHAR
STARTCHAR |
ENCODING 124
SWIDTH 1 0
DWIDTH 16 0
BBX 16 16 0 -5
BITMAP
0000
0000
0000
0000
0000
0000
0000
0000
0000
0000
0000
0000
0000
0000
0000
0000
ENDCHAR
STARTCHAR }
ENCODING 125
SWIDTH 1 0
DWIDTH 16 0
BBX 16 16 0 -5
BITMAP
0000
0000
0000
0000
0000
0000
0000
0000
0000
0000
0000
0000
0000
0000
0000
0000
ENDCHAR
ENDFONT
